Coordinates
version=1
nRows=9
nColumns=24
inDegrees=yes

Units are S.I. units (second, meters, Newtons, ...)
Angles are in degrees.

endheader
time	pelvis_tilt	pelvis_list	pelvis_rotation	pelvis_tx	pelvis_ty	pelvis_tz	hip_flexion_r	hip_adduction_r	hip_rotation_r	knee_angle_r	ankle_angle_r	subtalar_angle_r	mtp_angle_r	hip_flexion_l	hip_adduction_l	hip_rotation_l	knee_angle_l	ankle_angle_l	subtalar_angle_l	mtp_angle_l	lumbar_extension	lumbar_bending	lumbar_rotation
      0.01000000	     50.48658500	      2.24652721	     -2.02232141	      0.75206590	      0.96217782	     -0.27371635	     16.80548983	    -14.43545586	      8.12130613	    -62.57017211	      6.91346540	     16.01328725	    -33.85129795	     23.61660818	     -6.53742337	     -0.43470395	     -4.33689548	    -15.17266861	     13.95633415	    -20.48390059	      0.00000000	      0.00000000	      0.00000000
      0.02000000	     50.65259385	      2.27564570	     -2.12371666	      0.75187124	      0.96222314	     -0.27365546	     16.64402365	    -14.44707073	      8.22515470	    -62.54728892	      6.72753592	     15.72663379	    -35.02607586	     23.39464398	     -6.54074366	     -0.53547100	     -4.30185486	    -15.07552032	     13.95715471	    -20.65006423	      0.00000000	      0.00000000	      0.00000000
      0.03000000	     50.69637703	      2.28470134	     -2.15639152	      0.75183355	      0.96227709	     -0.27364920	     16.59537201	    -14.45266648	      8.24981000	    -62.60213333	      6.81041297	     15.68604178	    -34.85669417	     23.32565487	     -6.54403753	     -0.57141212	     -4.28741533	    -15.00647758	     13.98572997	    -20.69166445	      0.00000000	      0.00000000	      0.00000000
      0.04000000	     50.66365478	      2.28159953	     -2.14251166	      0.75188337	      0.96231850	     -0.27366901	     16.63024676	    -14.45315004	      8.22393256	    -62.70398433	      7.05421083	     15.81456380	    -33.77792110	     23.35826414	     -6.54579283	     -0.56248942	     -4.28959296	    -14.95975830	     14.03602850	    -20.64072892	      0.00000000	      0.00000000	      0.00000000
      0.05000000	     50.59976086	      2.27404170	     -2.10769182	      0.75194157	      0.96233250	     -0.27368582	     16.70860877	    -14.45145630	      8.17923246	    -62.81884979	      7.33824294	     16.02337497	    -32.30102340	     23.43762769	     -6.54546586	     -0.53040606	     -4.30240796	    -14.93043953	     14.10101467	    -20.53409178	      0.00000000	      0.00000000	      0.00000000
      0.06000000	     50.53823750	      2.26793594	     -2.07413499	      0.75196754	      0.96231943	     -0.27368501	     16.78963148	    -14.45119486	      8.14147909	    -62.91718920	      7.56290348	     16.23274059	    -30.89501777	     23.52017994	     -6.54374508	     -0.49281295	     -4.31868590	    -14.91610487	     14.17442616	    -20.40511102	      0.00000000	      0.00000000	      0.00000000
      0.07000000	     50.49876879	      2.26720151	     -2.05613533	      0.75196913	      0.96228500	     -0.27367460	     16.84307144	    -14.45422870	      8.12545770	    -62.97746065	      7.66957648	     16.38436608	    -29.91052645	     23.57887940	     -6.54172922	     -0.46066965	     -4.33181762	    -14.91672192	     14.25172669	    -20.27917488	      0.00000000	      0.00000000	      0.00000000
      0.08000000	     50.48878282	      2.27299247	     -2.05859742	      0.75196367	      0.96223135	     -0.27367489	     16.85635405	    -14.45986405	      8.13418603	    -62.98802086	      7.64577150	     16.44640928	    -29.54275387	     23.60174902	     -6.53987472	     -0.43832060	     -4.33773317	    -14.93320734	     14.33004905	    -20.17217830	      0.00000000	      0.00000000	      0.00000000
      0.09000000	     50.50635256	      2.28259161	     -2.07846784	      0.75194846	      0.96217407	     -0.27368905	     16.83413944	    -14.46612578	      8.16162970	    -62.94812683	      7.51710834	     16.41292254	    -29.82814625	     23.58850291	     -6.53733522	     -0.42537009	     -4.33548126	    -14.96527437	     14.40736923	    -20.09108486	      0.00000000	      0.00000000	      0.00000000
